<?xml version="1.0" encoding="UTF-8"?>
<svg id="Layer_1" data-name="Layer 1" xmlns="http://www.w3.org/2000/svg" viewBox="0 0 82.36 30.23">
  <defs>
    <style>
      .cls-1 {
        fill: #fff;
        stroke-width: 0px;
      }
    </style>
  </defs>
  <path class="cls-1" d="m0,12.16C0,4.41,5.34,0,11.17,0c3.06,0,5.55,1.42,7.19,3.06l-3.2,3.91c-1.14-1-2.28-1.71-3.84-1.71-2.7,0-5.05,2.49-5.05,6.69s1.99,6.76,4.98,6.76c1.78,0,3.2-.92,4.2-1.99l3.2,3.84c-1.96,2.28-4.62,3.41-7.61,3.41-5.9,0-11.03-3.91-11.03-11.81Z"/>
  <path class="cls-1" d="m21.41,20.27c0-2.06,1.49-3.7,3.56-3.7s3.56,1.64,3.56,3.7-1.49,3.7-3.56,3.7-3.56-1.64-3.56-3.7Z"/>
  <path class="cls-1" d="m38.9,20.67l3.49-4.2c1.64,1.32,3.7,2.24,5.41,2.24,1.85,0,2.63-.61,2.63-1.64,0-1.1-1.17-1.46-3.13-2.24l-2.88-1.21c-2.49-1-4.66-3.09-4.66-6.44,0-3.95,3.56-7.18,8.61-7.18,2.63,0,5.55,1,7.68,3.09l-3.06,3.84c-1.56-1.1-2.92-1.67-4.62-1.67-1.49,0-2.42.53-2.42,1.57,0,1.1,1.32,1.49,3.41,2.31l2.81,1.1c2.88,1.14,4.52,3.13,4.52,6.33,0,3.91-3.27,7.4-9.03,7.4-2.92,0-6.26-1.07-8.75-3.31Z"/>
  <path class="cls-1" d="m59.39,11.88c0-7.61,4.34-11.88,10.74-11.88s10.74,4.3,10.74,11.88-4.34,12.09-10.74,12.09-10.74-4.48-10.74-12.09Zm15.22,0c0-4.2-1.71-6.62-4.48-6.62s-4.48,2.42-4.48,6.62c0,4.55,1.71,7.11,4.48,7.11s4.48-2.56,4.48-7.11Zm-7.4,11.45l6.19-.64c.85,2.06,3.27,2.7,5.26,2.7,1,0,1.92-.18,2.63-.43l1.07,4.41c-.92.5-2.46.85-4.41.85-5.33,0-9.03-2.92-10.74-6.9Z"/>
</svg>